<?xml version="1.0" standalone="no"?>
<!DOCTYPE svg PUBLIC "-//W3C//DTD SVG 20010904//EN"
 "http://www.w3.org/TR/2001/REC-SVG-20010904/DTD/svg10.dtd">
<svg version="1.0" xmlns="http://www.w3.org/2000/svg"
 width="260.000000pt" height="260.000000pt" viewBox="0 0 260.000000 260.000000"
 preserveAspectRatio="xMidYMid meet">
<metadata>
Created by potrace 1.14, written by Peter Selinger 2001-2017
</metadata>
<g transform="translate(0.000000,260.000000) scale(0.100000,-0.100000)"
fill="#000000" stroke="none">
<path d="M420 1295 l0 -335 55 0 55 0 0 140 0 140 84 0 84 0 204 -140 203
-140 95 0 c54 0 90 4 85 9 -6 5 -104 73 -220 152 -116 78 -220 150 -232 159
-22 17 -19 19 219 184 l241 166 -97 0 -96 0 -202 -140 -203 -140 -82 0 -83 0
0 140 0 140 -55 0 -55 0 0 -335z"/>
<path d="M1360 1575 l0 -55 195 0 195 0 0 -280 0 -280 50 0 50 0 0 280 0 280
195 0 195 0 0 55 0 55 -440 0 -440 0 0 -55z"/>
</g>
</svg>
